<?xml version="1.0" standalone="no"?><!DOCTYPE svg PUBLIC "-//W3C//DTD SVG 1.1//EN" "http://www.w3.org/Graphics/SVG/1.1/DTD/svg11.dtd"><svg t="1516436266583" class="icon" style="" viewBox="0 0 1024 1024" version="1.1" xmlns="http://www.w3.org/2000/svg" p-id="733" xmlns:xlink="http://www.w3.org/1999/xlink" width="200" height="200"><defs><style type="text/css"></style></defs><path d="M512.845326 996.190955a43.350032 43.350032 0 0 1-32.563099-14.731786L11.531108 447.993678a43.364482 43.364482 0 0 1-5.852254-48.703761L184.728935 56.846342a43.350032 43.350032 0 0 1 38.415353-23.264517h579.4093a43.357257 43.357257 0 0 1 38.415353 23.264517l179.042856 342.443575a43.342807 43.342807 0 0 1-5.859479 48.696536L545.401199 981.444719a43.285007 43.285007 0 0 1-32.555873 14.746236zM96.294871 413.111353l416.550455 474.054272 416.55768-474.054272-153.097862-292.82224H249.392733l-153.097862 292.82224z" fill="#ffffff" p-id="734"></path><path d="M512.845326 736.473689a43.357257 43.357257 0 0 1-32.180174-14.298285L205.471925 417.366881a43.357257 43.357257 0 0 1 64.360348-58.103493L512.845326 628.43096l243.013053-269.167572a43.350032 43.350032 0 0 1 64.353122 58.103493L545.025499 722.168179a43.335582 43.335582 0 0 1-32.180173 14.30551z" fill="#ffffff" p-id="735"></path></svg>